<svg width="24" height="24" viewBox="0 0 24 24" fill="none" xmlns="http://www.w3.org/2000/svg">
<path d="M11.2022 7.73666C11.0975 7.45736 10.8372 7.26667 10.5393 7.25104C10.2414 7.2354 9.96258 7.39779 9.82918 7.6646L8.03647 11.25H6C5.58579 11.25 5.25 11.5858 5.25 12C5.25 12.4142 5.58579 12.75 6 12.75H8.5C8.78408 12.75 9.04378 12.5895 9.17082 12.3354L10.4017 9.87375L12.7978 16.2633C12.9025 16.5427 13.1628 16.7333 13.4607 16.749C13.7586 16.7646 14.0374 16.6022 14.1708 16.3354L15.9635 12.75H18C18.4142 12.75 18.75 12.4142 18.75 12C18.75 11.5858 18.4142 11.25 18 11.25H15.5C15.2159 11.25 14.9562 11.4105 14.8292 11.6646L13.5983 14.1263L11.2022 7.73666Z" fill="white"/>
<path fill-rule="evenodd" clip-rule="evenodd" d="M12.0569 2.25H11.9431C9.87002 2.24999 8.23769 2.24998 6.96234 2.42144C5.65376 2.59738 4.60928 2.9661 3.78769 3.78769C2.9661 4.60928 2.59737 5.65376 2.42144 6.96234C2.24997 8.23769 2.24999 9.87002 2.25 11.9431V12.0569C2.24999 14.13 2.24998 15.7623 2.42144 17.0377C2.59738 18.3462 2.9661 19.3907 3.78769 20.2123C4.60928 21.0339 5.65376 21.4026 6.96234 21.5786C8.23769 21.75 9.87002 21.75 11.9431 21.75H12.0569C14.13 21.75 15.7623 21.75 17.0377 21.5786C18.3462 21.4026 19.3907 21.0339 20.2123 20.2123C21.0339 19.3907 21.4026 18.3462 21.5786 17.0377C21.75 15.7623 21.75 14.13 21.75 12.0569V11.9431C21.75 9.87002 21.75 8.23769 21.5786 6.96234C21.4026 5.65376 21.0339 4.60928 20.2123 3.78769C19.3907 2.9661 18.3462 2.59737 17.0377 2.42144C15.7623 2.24997 14.13 2.24999 12.0569 2.25ZM4.84835 4.84835C5.34478 4.35192 6.01997 4.06164 7.16221 3.90807C8.32603 3.75159 9.85748 3.75 12 3.75C14.1425 3.75 15.674 3.75159 16.8378 3.90807C17.98 4.06164 18.6552 4.35192 19.1517 4.84835C19.6481 5.34478 19.9384 6.01997 20.0919 7.16221C20.2484 8.32603 20.25 9.85748 20.25 12C20.25 14.1425 20.2484 15.674 20.0919 16.8378C19.9384 17.98 19.6481 18.6552 19.1517 19.1517C18.6552 19.6481 17.98 19.9384 16.8378 20.0919C15.674 20.2484 14.1425 20.25 12 20.25C9.85748 20.25 8.32604 20.2484 7.16221 20.0919C6.01997 19.9384 5.34478 19.6481 4.84835 19.1517C4.35192 18.6552 4.06164 17.98 3.90807 16.8378C3.75159 15.674 3.75 14.1425 3.75 12C3.75 9.85748 3.75159 8.32604 3.90807 7.16221C4.06164 6.01997 4.35192 5.34478 4.84835 4.84835Z" fill="white"/>
</svg>
