<svg preserveAspectRatio="none" overflow="visible" style="display: block;" width="21.5" height="21.5" viewBox="0 0 21.5 21.5" fill="none" xmlns="http://www.w3.org/2000/svg">
<g id="elements">
<g id="Icon">
<path d="M8.52968 0.75C8.52968 0.335786 8.1939 0 7.77968 0C7.36547 0 7.02968 0.335786 7.02968 0.75V2.25C7.02968 2.66421 7.36547 3 7.77968 3C8.1939 3 8.52968 2.66421 8.52968 2.25V0.75Z" fill="white"/>
<path d="M3.28033 2.21967C2.98744 1.92678 2.51256 1.92678 2.21967 2.21967C1.92678 2.51256 1.92678 2.98744 2.21967 3.28033L3.21967 4.28033C3.51256 4.57322 3.98744 4.57322 4.28033 4.28033C4.57322 3.98744 4.57322 3.51256 4.28033 3.21967L3.28033 2.21967Z" fill="white"/>
<path d="M13.2803 3.28033C13.5732 2.98744 13.5732 2.51256 13.2803 2.21967C12.9874 1.92678 12.5126 1.92678 12.2197 2.21967L11.2197 3.21967C10.9268 3.51256 10.9268 3.98744 11.2197 4.28033C11.5126 4.57322 11.9874 4.57322 12.2803 4.28033L13.2803 3.28033Z" fill="white"/>
<path d="M0.75 7.02975C0.335786 7.02975 0 7.36554 0 7.77975C0 8.19396 0.335786 8.52975 0.75 8.52975H2.25C2.66421 8.52975 3 8.19396 3 7.77975C3 7.36554 2.66421 7.02975 2.25 7.02975H0.75Z" fill="white"/>
<path d="M4.28033 12.2803C4.57322 11.9874 4.57322 11.5126 4.28033 11.2197C3.98744 10.9268 3.51256 10.9268 3.21967 11.2197L2.21967 12.2197C1.92678 12.5126 1.92678 12.9874 2.21967 13.2803C2.51256 13.5732 2.98744 13.5732 3.28033 13.2803L4.28033 12.2803Z" fill="white"/>
<path fill-rule="evenodd" clip-rule="evenodd" d="M21.5 11.2135C21.5021 10.8776 21.3452 10.6087 21.2117 10.434C21.0702 10.2489 20.8867 10.0804 20.694 9.92947C20.3065 9.62591 19.7807 9.31501 19.1843 9.01187C17.984 8.4018 16.3869 7.76757 14.752 7.24131C13.1185 6.7155 11.4125 6.28625 9.99467 6.10027C9.28842 6.00764 8.62267 5.97107 8.05972 6.02533C7.53229 6.07616 6.92945 6.22083 6.53365 6.64706C6.14996 7.06025 6.03777 7.66206 6.00857 8.18676C5.97726 8.74955 6.03374 9.41344 6.14473 10.1186C6.36746 11.534 6.8286 13.2305 7.37979 14.8522C7.93128 16.4748 8.58421 18.0556 9.20328 19.2387C9.51079 19.8263 9.82419 20.3436 10.1275 20.7225C10.2782 20.9107 10.4469 21.0909 10.6322 21.2286C10.8061 21.3577 11.0814 21.5141 11.4242 21.499C11.9447 21.476 12.3317 21.1891 12.6037 20.836C12.8617 20.5012 13.0581 20.0577 13.2275 19.567C13.5665 18.5848 13.8834 17.1437 14.2866 15.3101L14.2899 15.2949C14.376 14.9033 14.4408 14.8141 14.4684 14.7844C14.4925 14.7584 14.5669 14.6917 14.9346 14.5886C15.1576 14.526 15.4964 14.4569 15.9342 14.3677L15.9355 14.3674C16.0718 14.3396 16.2178 14.3099 16.3729 14.2778C17.0011 14.1476 17.7376 13.9859 18.4399 13.7764C19.1323 13.57 19.8445 13.3021 20.3988 12.9396C20.9384 12.5866 21.4947 12.029 21.5 11.2135ZM7.7553 7.60679C7.66937 7.63772 7.63781 7.66357 7.63297 7.66774C7.62939 7.67263 7.60405 7.70811 7.57603 7.80238C7.54403 7.91007 7.51774 8.06368 7.50626 8.27008C7.4832 8.68457 7.52368 9.23217 7.62649 9.88546C7.83134 11.1871 8.26508 12.7957 8.79999 14.3695C9.3346 15.9423 9.95897 17.4475 10.5323 18.5432C10.821 19.095 11.0826 19.5154 11.2985 19.7851C11.3428 19.8404 11.3818 19.8851 11.4153 19.9208C11.5235 19.7804 11.6568 19.5203 11.8096 19.0776C12.114 18.1957 12.4111 16.8548 12.8249 14.9728C12.9196 14.5423 13.0501 14.1078 13.3687 13.7643C13.6907 13.4171 14.1133 13.2611 14.5294 13.1443C14.81 13.0656 15.2282 12.9805 15.6816 12.8882C15.8085 12.8624 15.9383 12.836 16.0685 12.809C16.6891 12.6804 17.3735 12.5292 18.0113 12.339C18.6591 12.1458 19.2062 11.9273 19.5777 11.6843C19.8386 11.5137 19.9395 11.382 19.9777 11.2958C19.9345 11.2497 19.8674 11.1875 19.7689 11.1102C19.4918 10.8932 19.0636 10.6332 18.5046 10.349C17.394 9.78455 15.8748 9.17853 14.2924 8.66916C12.7086 8.15935 11.0963 7.75761 9.7996 7.58754C9.14859 7.50215 8.608 7.47943 8.20363 7.51841C8.00251 7.53779 7.85584 7.5706 7.7553 7.60679ZM11.3285 20.0083C11.3285 20.0078 11.3313 20.0059 11.3369 20.004C11.3312 20.0079 11.3284 20.0089 11.3285 20.0083ZM11.5435 20.0355C11.5424 20.0349 11.5407 20.0339 11.5384 20.0327C11.5428 20.0356 11.545 20.0368 11.545 20.0366C11.545 20.0365 11.5445 20.0361 11.5435 20.0355ZM20.0312 11.3605C20.0333 11.3645 20.0346 11.3666 20.0348 11.3666C20.0349 11.3669 20.0348 11.3666 20.0348 11.3666C20.0344 11.3658 20.0331 11.3634 20.0312 11.3605Z" fill="white"/>
</g>
</g>
</svg>
